<?xml version="1.0" encoding="UTF-8" standalone="no"?>
<!-- Created with Inkscape (http://www.inkscape.org/) -->

<svg
   width="120"
   height="120"
   viewBox="0 0 120 120"
   version="1.1"
   id="svg1"
   sodipodi:docname="logo.svg"
   inkscape:version="1.4 (e7c3feb1, 2024-10-09)"
   xmlns:inkscape="http://www.inkscape.org/namespaces/inkscape"
   xmlns:sodipodi="http://sodipodi.sourceforge.net/DTD/sodipodi-0.dtd"
   xmlns="http://www.w3.org/2000/svg"
   xmlns:svg="http://www.w3.org/2000/svg">
  <sodipodi:namedview
     id="namedview1"
     pagecolor="#ffffff"
     bordercolor="#000000"
     borderopacity="0.25"
     inkscape:showpageshadow="2"
     inkscape:pageopacity="0.0"
     inkscape:pagecheckerboard="0"
     inkscape:deskcolor="#d1d1d1"
     inkscape:document-units="px"
     inkscape:zoom="5.4597836"
     inkscape:cx="31.869395"
     inkscape:cy="59.709326"
     inkscape:window-width="1496"
     inkscape:window-height="839"
     inkscape:window-x="0"
     inkscape:window-y="28"
     inkscape:window-maximized="0"
     inkscape:current-layer="layer1" />
  <defs
     id="defs1" />
  <g
     inkscape:label="Layer 1"
     inkscape:groupmode="layer"
     id="layer1">
    <path
       style="display:inline;fill:#000000"
       d="m 41.447639,19.882631 -21.488536,0.152944 v 80.983485 l 21.565008,0.0765 0.152943,-5.888315 -14.529615,0.07647 0.07647,-69.359795 14.223728,-0.07647 z"
       id="path1" />
    <path
       style="fill:#000000"
       d="m 80.661392,35.626733 4.241277,11.72135 2.467653,0.07711 1.31094,-6.400474 1.156712,-8.251213 -6.169131,-1.696511 -7.017387,-0.848256 -8.096984,-0.154228 -3.624365,0.385571 -4.935305,1.465168 -3.624365,1.927854 -2.23631,1.773625 -1.927853,2.467653 -1.465169,3.238794 -0.462685,4.241277 0.385571,3.701479 1.079598,2.930338 2.776109,3.470136 3.624364,3.084566 4.703963,2.776109 8.791012,3.778593 5.475104,2.776109 2.544767,1.773625 1.619397,1.619397 0.771141,1.002484 0.539799,1.31094 0.385571,1.773625 v 2.004968 l -0.385571,1.927854 -0.848255,1.927853 -1.388055,1.773625 -2.544767,1.85074 -1.850739,0.848255 -1.850739,0.694028 -2.930338,0.539799 -5.475104,0.231342 -2.544766,-0.308457 -1.696511,-0.539799 -1.542283,-0.925369 -0.848256,-0.771142 -4.164163,-12.492491 -2.467653,0.07712 -2.390538,15.345714 2.776109,1.388054 5.243761,1.619397 6.246246,0.848256 9.176583,-0.154229 4.935305,-1.002483 5.089533,-1.927854 3.238794,-2.23631 2.698995,-2.776109 1.773625,-3.393022 0.848256,-3.315908 -0.07712,-4.164164 -0.694027,-3.084566 -2.853223,-4.164163 -3.393022,-3.007452 -5.706447,-3.315908 -7.402957,-3.084566 -7.094501,-3.855707 -3.238794,-2.698995 -1.927854,-2.698994 -0.38557,-4.472621 1.233826,-3.315908 1.465169,-1.850739 2.776109,-1.619397 3.315908,-1.002484 3.855707,-0.154228 4.087049,0.231342 2.698995,0.539799 z"
       id="path2" />
  </g>
</svg>
